<svg width="15" height="13" viewBox="0 0 15 13" fill="none" xmlns="http://www.w3.org/2000/svg">
<path d="M0.378906 5.9082C0.378906 5.77344 0.4375 5.63281 0.566406 5.52734L6.67188 0.400391C7.11133 0.03125 7.65039 0.03125 8.08398 0.400391L11.0723 2.9082V1.80078C11.0723 1.54297 11.2422 1.37891 11.4941 1.37891H12.1211C12.3789 1.37891 12.543 1.54297 12.543 1.80078V4.14453L14.1836 5.52734C14.3066 5.63281 14.3652 5.75 14.3652 5.92578C14.3652 6.20703 14.1426 6.37695 13.8672 6.37695C13.7031 6.37695 13.5684 6.28906 13.4512 6.18945L7.58594 1.26758C7.45703 1.15039 7.29883 1.15039 7.16992 1.26758L1.30469 6.18945C1.18164 6.28906 1.04688 6.37695 0.882812 6.37695C0.566406 6.37695 0.378906 6.14844 0.378906 5.9082ZM2.20703 11.1348V6.49414L7.02344 2.45703C7.24023 2.27539 7.50391 2.26953 7.72656 2.45703L12.543 6.49414V11.1348C12.543 11.9492 12.0566 12.4297 11.2305 12.4297H3.52539C2.69922 12.4297 2.20703 11.9492 2.20703 11.1348ZM8.88086 11.4863V7.61328C8.88086 7.34375 8.70508 7.16797 8.43555 7.16797H6.30859C6.03906 7.16797 5.85742 7.34375 5.85742 7.61328V11.4863H8.88086Z" fill="white"/>
</svg>
