<svg width="20" height="20" viewBox="0 0 20 20" fill="none" xmlns="http://www.w3.org/2000/svg">
<g clip-path="url(#clip0_270_2642)">
<rect x="2.10547" y="4.21053" width="2.10526" height="2.10526" fill="#FF5722"/>
<rect y="6.31579" width="18.9474" height="7.36842" fill="#FF5722"/>
<rect x="17.8945" y="6.31579" width="2.10526" height="7.36842" fill="#FF5722"/>
<rect width="2.10526" height="2.10526" transform="matrix(1 0 0 -1 2.10547 15.7895)" fill="#FF5722"/>
<rect width="2.10526" height="2.10526" transform="matrix(-1 0 0 1 17.8945 4.21053)" fill="#FF5722"/>
<rect x="17.8945" y="15.7895" width="2.10526" height="2.10526" transform="rotate(180 17.8945 15.7895)" fill="#FF5722"/>
<rect x="4.21045" y="2.10526" width="2.10526" height="13.6842" fill="#FF5722"/>
<rect x="6.31592" width="7.36842" height="17.8947" fill="#FF5722"/>
<rect x="6.31592" y="17.8947" width="7.36842" height="2.10526" fill="#FF5722"/>
<rect width="2.10526" height="2.10526" transform="matrix(1 0 0 -1 4.21045 17.8947)" fill="#FF5722"/>
<rect width="2.10526" height="13.6842" transform="matrix(-1 0 0 1 15.7896 2.10526)" fill="#FF5722"/>
<rect x="15.7896" y="17.8947" width="2.10526" height="2.10526" transform="rotate(180 15.7896 17.8947)" fill="#FF5722"/>
<path d="M11.2767 15H9.54359V8.11061L7.27385 8.92475V7.43215L11.1842 6.01974H11.2767V15Z" fill="white"/>
</g>
<defs>
<clipPath id="clip0_270_2642">
<rect width="20" height="20" fill="white"/>
</clipPath>
</defs>
</svg>
