<svg width="26" height="26" viewBox="0 0 26 26" fill="none" xmlns="http://www.w3.org/2000/svg">
<path fill-rule="evenodd" clip-rule="evenodd" d="M5.12972 3.34789C2.23938 3.55435 0 5.95939 0 8.85709L0 17.1429C0 20.0406 2.23938 22.4457 5.12972 22.6521C10.3699 23.0264 15.6301 23.0264 20.8703 22.6521C23.7606 22.4457 26 20.0406 26 17.1429L26 8.85709C26 5.95939 23.7606 3.55435 20.8703 3.34789C15.6301 2.97359 10.3699 2.97359 5.12972 3.34789ZM11.2131 9.35946C10.7542 9.13008 10.2143 9.46368 10.2143 9.97659V16.0234C10.2143 16.5364 10.7542 16.87 11.2131 16.6406L17.2614 13.6171C17.77 13.3629 17.77 12.6372 17.2614 12.3829L11.2131 9.35946Z" fill="white"/>
</svg>
