<svg width="40" height="12" viewBox="0 0 40 12" fill="none" xmlns="http://www.w3.org/2000/svg">
<path fill-rule="evenodd" clip-rule="evenodd" d="M2.38552e-05 0H3.85826V3.85824H2.38552e-05V0ZM14.147 6.14374e-06H18.0052V3.85825H14.147V6.14374e-06ZM3.85824 3.85838H0V7.71647V7.71662V11.5747H3.85824V7.71662V7.71647V3.85838ZM7.71629 3.85838H11.5745V7.71647V7.71662V11.5747H7.71668H7.71629H3.85844V7.71647H7.71629V3.85838ZM3.85844 6.14374e-06H7.71629H7.71668H11.5745V3.85825H7.71668H7.71629H3.85844V6.14374e-06ZM14.147 3.85838H18.0049H18.0052H21.8631V7.71662H18.0052V11.5747H14.147V7.71662V7.71647V3.85838ZM32.1522 6.14374e-06H28.294V3.85825H32.1522V6.14374e-06ZM32.1522 7.71662H36.0101V3.85838H32.1519V7.71647H28.294V11.5747H32.1522V7.71662ZM25.7215 6.14374e-06H21.8632V3.85825H25.7215V6.14374e-06ZM36.1418 6.14374e-06H40V3.85825H36.1418V6.14374e-06ZM21.8632 7.71647H25.7215V11.5747H21.8632V7.71647ZM39.8686 7.71647H36.0104V11.5747H39.8686V7.71647Z" fill="white"/>
</svg>
