<svg width="20" height="20" viewBox="0 0 20 20" fill="none" xmlns="http://www.w3.org/2000/svg">
<g clip-path="url(#clip0_270_2656)">
<rect x="2.10547" y="4.21053" width="2.10526" height="2.10526" fill="#555555"/>
<rect y="6.31579" width="18.9474" height="7.36842" fill="#555555"/>
<rect x="17.8945" y="6.31579" width="2.10526" height="7.36842" fill="#555555"/>
<rect width="2.10526" height="2.10526" transform="matrix(1 0 0 -1 2.10547 15.7895)" fill="#555555"/>
<rect width="2.10526" height="2.10526" transform="matrix(-1 0 0 1 17.8945 4.21053)" fill="#555555"/>
<rect x="17.8945" y="15.7895" width="2.10526" height="2.10526" transform="rotate(180 17.8945 15.7895)" fill="#555555"/>
<rect x="4.21045" y="2.10526" width="2.10526" height="13.6842" fill="#555555"/>
<rect x="6.31592" width="7.36842" height="17.8947" fill="#555555"/>
<rect x="6.31592" y="17.8947" width="7.36842" height="2.10526" fill="#555555"/>
<rect width="2.10526" height="2.10526" transform="matrix(1 0 0 -1 4.21045 17.8947)" fill="#555555"/>
<rect width="2.10526" height="13.6842" transform="matrix(-1 0 0 1 15.7896 2.10526)" fill="#555555"/>
<rect x="15.7896" y="17.8947" width="2.10526" height="2.10526" transform="rotate(180 15.7896 17.8947)" fill="#555555"/>
<path d="M12.9482 15H6.8236V13.8281L9.72862 10.7072C9.95477 10.4605 10.146 10.2364 10.3022 10.035C10.4585 9.83347 10.5859 9.64844 10.6846 9.47985C10.7792 9.31538 10.847 9.16118 10.8882 9.01727C10.9334 8.87336 10.956 8.73355 10.956 8.59786C10.956 8.39638 10.9272 8.21752 10.8697 8.06127C10.8121 7.90502 10.7319 7.77138 10.6291 7.66036C10.5222 7.55345 10.3947 7.47122 10.2467 7.41365C10.1028 7.35609 9.94243 7.3273 9.76562 7.3273C9.53536 7.3273 9.33183 7.3602 9.15502 7.42599C8.98232 7.48766 8.8384 7.58018 8.72327 7.70354C8.60403 7.831 8.51357 7.98931 8.45189 8.17845C8.39021 8.3676 8.35937 8.58347 8.35937 8.82607H6.63857C6.63857 8.42722 6.71464 8.05099 6.86678 7.69737C7.01891 7.33964 7.23479 7.02714 7.51439 6.75987C7.78988 6.4926 8.12294 6.28289 8.51357 6.13076C8.90831 5.97451 9.34416 5.89638 9.82113 5.89638C10.2775 5.89638 10.6805 5.96011 11.03 6.08758C11.3836 6.21505 11.6797 6.39391 11.9182 6.62418C12.1525 6.85444 12.3314 7.13199 12.4548 7.45683C12.5781 7.77755 12.6398 8.13322 12.6398 8.52385C12.6398 8.8199 12.5925 9.10362 12.4979 9.375C12.4075 9.64227 12.278 9.90748 12.1094 10.1706C11.9367 10.4338 11.7311 10.7031 11.4926 10.9786C11.2541 11.25 10.9889 11.5358 10.697 11.8359L9.00699 13.6246H12.9482V15Z" fill="white"/>
</g>
<defs>
<clipPath id="clip0_270_2656">
<rect width="20" height="20" fill="white"/>
</clipPath>
</defs>
</svg>
