<svg width="50" height="16" viewBox="0 0 50 16" fill="none" xmlns="http://www.w3.org/2000/svg">
<mask id="mask0_23_131" style="mask-type:luminance" maskUnits="userSpaceOnUse" x="0" y="0" width="50" height="16">
<path d="M0 0H50V15.534H0V0Z" fill="white"/>
</mask>
<g mask="url(#mask0_23_131)">
<path d="M19.5979 7.8029C19.9741 7.58931 20.2751 7.32329 20.4945 7.0097C20.7439 6.65519 20.8758 6.23144 20.8717 5.79805C20.8717 4.96213 20.5591 4.30921 19.9431 3.85824C19.3343 3.41164 18.497 3.18591 17.4533 3.18591H13.6795V12.8709H17.6042C18.7033 12.8709 19.5834 12.6155 20.2198 12.1112C20.861 11.6024 21.1868 10.8903 21.1868 9.99368C21.1868 9.44756 21.0334 8.97815 20.7319 8.59805C20.4615 8.25824 20.0805 7.99125 19.5979 7.8029ZM15.7217 4.93154H17.2892C17.7809 4.93154 18.1518 5.02669 18.3931 5.21455C18.6309 5.39902 18.7474 5.64271 18.7474 5.95727C18.7474 6.27281 18.6309 6.52815 18.3931 6.71407C18.1518 6.90145 17.7809 6.99659 17.2892 6.99659H15.7217V4.93154ZM18.6727 10.7971C18.4008 11.015 17.9858 11.1252 17.4397 11.1252H15.7217V8.75533H17.4402C17.9858 8.75533 18.4013 8.86213 18.6741 9.07087C18.9445 9.2796 19.0756 9.55485 19.0756 9.91358C19.0756 10.2913 18.944 10.5801 18.6727 10.7971ZM23.9465 5.62863H21.8902V12.8704H23.946L23.9465 5.62863ZM44.2528 6.71844C43.9236 6.32818 43.5088 6.01919 43.0406 5.81552C42.562 5.60339 42.0237 5.49562 41.4416 5.49562C40.728 5.49562 40.0843 5.65776 39.5275 5.97717C38.9769 6.29056 38.5221 6.74804 38.212 7.30048C37.896 7.85873 37.7363 8.50533 37.7363 9.22329C37.7363 9.94174 37.8916 10.6311 38.1974 11.1976C38.4963 11.7573 38.9517 12.2178 39.5081 12.5228C40.0698 12.833 40.7295 12.9903 41.4693 12.9903C42.3771 12.9903 43.1474 12.7621 43.7606 12.3112C44.3504 11.8777 44.7557 11.2665 44.9771 10.5005H42.9072C42.7984 10.7612 42.645 10.983 42.4251 11.1393C42.1654 11.3238 41.83 11.417 41.428 11.417C41.0795 11.417 40.7805 11.3325 40.5397 11.1655C40.2984 10.998 40.1139 10.7514 39.9926 10.4306C39.9151 10.2197 39.8631 10.0004 39.8377 9.77718H45.013L45.0232 9.7131C45.1154 9.12912 45.0921 8.57572 44.9533 8.06844C44.8205 7.57279 44.5815 7.11197 44.2528 6.71795V6.71844ZM39.8707 8.43688C39.9022 8.28685 39.9452 8.13948 39.9994 7.99611C40.1256 7.67086 40.3076 7.42086 40.5411 7.25387C40.7737 7.08688 41.063 7.0029 41.4008 7.0029C41.8246 7.0029 42.1727 7.14028 42.4348 7.41067C42.6838 7.66795 42.8246 8.01941 42.8547 8.4364L39.8707 8.43688ZM23.9892 3.18591H21.8474V4.93154H23.9892V3.18591ZM35.2474 6.45048C35.0157 6.16752 34.726 5.93745 34.3979 5.77572C34.0144 5.5898 33.5654 5.49562 33.0635 5.49562C32.4494 5.49562 31.8984 5.64756 31.4275 5.94562C30.9567 6.24417 30.5829 6.66552 30.3183 7.19756C30.0538 7.72863 29.9198 8.35193 29.9198 9.05096C29.9198 9.74999 30.0605 10.3369 30.3392 10.8714C30.6183 11.4078 31.0052 11.8349 31.4892 12.1417C31.9737 12.449 32.5266 12.6053 33.1324 12.6053C33.5897 12.6053 34.0076 12.5063 34.3737 12.3107C34.6558 12.162 34.9025 11.9542 35.097 11.7014V12.4898C35.097 12.9786 34.9688 13.3539 34.7164 13.6039C34.463 13.8539 34.0775 13.9801 33.5707 13.9801C33.1339 13.9801 32.7906 13.8811 32.5504 13.6854C32.3538 13.5252 32.1819 13.3155 32.1421 12.8709H30.1596C30.178 13.4932 30.3606 13.9121 30.6188 14.2796C30.9076 14.6908 31.3144 15.0126 31.829 15.2349C32.3377 15.4544 32.929 15.566 33.5843 15.566C34.6853 15.566 35.5615 15.2893 36.1887 14.7442C36.8198 14.1961 37.1392 13.4286 37.1392 12.4636V5.62863H35.2479L35.2474 6.45048ZM34.8858 10.0131C34.7666 10.2697 34.5767 10.487 34.3382 10.6393C34.1052 10.7849 33.8237 10.8597 33.5023 10.8597C33.0363 10.8597 32.6746 10.701 32.3955 10.3752C32.1169 10.0505 31.9756 9.60484 31.9756 9.05048C31.9756 8.49611 32.1164 8.05048 32.395 7.72572C32.6712 7.40436 33.0436 7.24125 33.5018 7.24125C33.9605 7.24125 34.3654 7.4063 34.6504 7.733C34.9377 8.06261 35.0834 8.51018 35.0834 9.0631C35.0834 9.42184 35.0169 9.74077 34.8858 10.0126V10.0131ZM50.0008 7.36116V5.62912H48.5169V3.18591H46.4746V5.62912H45.2071V7.36116H46.4746V10.1961C46.4746 11.7723 46.7853 12.9306 48.7203 12.8947L49.9353 12.8704V11.2476H49.3324C48.4722 11.2476 48.5203 10.7461 48.5203 9.81455L48.5169 7.36164L50.0008 7.36116ZM29.4203 7.36116V5.62912H27.9363V3.18591H25.894V5.62912H24.6261V7.36116H25.8931V10.1961C25.8931 11.7723 26.2038 12.9306 28.1392 12.8947L29.3538 12.8704V11.2476H28.7523C27.8921 11.2476 27.9397 10.7461 27.9397 9.81455L27.9363 7.36164L29.4203 7.36116ZM5.12608 4.93154H8.21007L11.3649 8.06601C11.5703 8.26989 11.5712 8.60193 11.3669 8.80679L7.32074 12.8733H4.14453L5.10521 11.9393L8.63142 8.43543L5.14987 4.93106" fill="white"/>
<path d="M6.3932 8.42718H3.31019L0.154848 5.29271C0.10602 5.24423 0.0672313 5.1866 0.0407028 5.12311C0.0141742 5.05963 0.000426296 4.99153 0.000245939 4.92272C6.55812e-05 4.85392 0.0134563 4.78575 0.0396517 4.72213C0.0658471 4.6585 0.104333 4.60067 0.152906 4.55193L4.19902 0.485428H7.37572L6.41553 1.41941L2.88883 4.92329L6.37087 8.42718" fill="white"/>
</g>
</svg>
