<svg width="50" height="19" viewBox="0 0 50 19" fill="none" xmlns="http://www.w3.org/2000/svg">
<path d="M5.53409 17.7262H0V4.50462H5.31049C7.8916 4.50462 9.396 5.95316 9.396 8.21832C9.396 9.68628 8.43115 10.6317 7.76279 10.9477C8.5624 11.3196 9.58318 12.1556 9.58318 13.9201C9.58318 16.3895 7.8916 17.7262 5.53409 17.7262ZM5.10633 6.80624H2.58112V9.85401H5.10633C6.20245 9.85401 6.81493 9.24155 6.81493 8.33012C6.81493 7.42113 6.20245 6.80624 5.10633 6.80624ZM5.27403 12.1751H2.58112V15.4246H5.27403C6.44306 15.4246 7.00206 14.6808 7.00206 13.7913C7.00206 12.8993 6.44306 12.1751 5.27403 12.1751Z" fill="white"/>
<path d="M17.4551 12.3038V17.7262H14.8934V12.3038L10.9197 4.50462H13.7244L16.1938 9.83455L18.6266 4.50462H21.4289L17.4551 12.3038Z" fill="white"/>
<path d="M28.748 17.7262H23.2139V4.50462H28.5243C31.1054 4.50462 32.6099 5.95316 32.6099 8.21832C32.6099 9.68628 31.645 10.6317 30.9766 10.9477C31.7762 11.3196 32.797 12.1556 32.797 13.9201C32.797 16.3895 31.1054 17.7262 28.748 17.7262ZM28.3201 6.80624H25.795V9.85401H28.3201C29.4163 9.85401 30.0288 9.24155 30.0288 8.33012C30.0288 7.42113 29.4163 6.80624 28.3201 6.80624ZM28.4879 12.1751H25.795V15.4246H28.4879C29.6569 15.4246 30.2159 14.6808 30.2159 13.7913C30.2135 12.8993 29.6569 12.1751 28.4879 12.1751Z" fill="white"/>
<path d="M38.199 0.454544H35.6179V13.6761H38.199V0.454544Z" fill="white"/>
<path d="M46.5177 6.80624V17.7262H43.9366V6.80624H40.4829V4.50462H49.9714V6.80624H46.5177Z" fill="white"/>
</svg>
