<svg width="39" height="38" viewBox="0 0 39 38" fill="none" xmlns="http://www.w3.org/2000/svg">
<g clip-path="url(#clip0_36_645)">
<rect x="4.25" y="8" width="4" height="4" fill="#FF5722"/>
<rect x="0.25" y="12" width="4" height="14" fill="#FF5722"/>
<rect x="34.25" y="12" width="4" height="14" fill="#FF5722"/>
<rect width="4" height="4" transform="matrix(1 0 0 -1 4.25 30)" fill="#FF5722"/>
<rect width="4" height="4" transform="matrix(-1 0 0 1 34.25 8)" fill="#FF5722"/>
<rect x="34.25" y="30" width="4" height="4" transform="rotate(180 34.25 30)" fill="#FF5722"/>
<rect x="8.25" y="4" width="4" height="4" fill="#FF5722"/>
<rect x="12.25" width="14" height="4" fill="#FF5722"/>
<rect x="12.25" y="34" width="14" height="4" fill="#FF5722"/>
<rect width="4" height="4" transform="matrix(1 0 0 -1 8.25 34)" fill="#FF5722"/>
<rect width="4" height="4" transform="matrix(-1 0 0 1 30.25 4)" fill="#FF5722"/>
<rect x="30.25" y="34" width="4" height="4" transform="rotate(180 30.25 34)" fill="#FF5722"/>
<path d="M19.2871 17.6855C17.1875 17.6855 15.3809 15.8105 15.3809 13.3887C15.3809 10.9961 17.1973 9.16992 19.2871 9.16992C21.377 9.16992 23.1934 10.957 23.1934 13.3691C23.1934 15.8105 21.377 17.6855 19.2871 17.6855ZM12.7344 26.7285C11.6895 26.7285 11.0645 26.2402 11.0645 25.4297C11.0645 22.9102 14.2188 19.4336 19.2773 19.4336C24.3457 19.4336 27.5 22.9102 27.5 25.4297C27.5 26.2402 26.875 26.7285 25.8301 26.7285H12.7344Z" fill="white"/>
</g>
<defs>
<clipPath id="clip0_36_645">
<rect width="38" height="38" fill="white" transform="translate(0.25)"/>
</clipPath>
</defs>
</svg>
