<svg width="50" height="15" viewBox="0 0 50 15" fill="none" xmlns="http://www.w3.org/2000/svg">
<path fill-rule="evenodd" clip-rule="evenodd" d="M27.0825 4.61732H28.8688V10.817H27.0825V4.61732Z" fill="white"/>
<path d="M25.9315 7.1472C25.7389 6.79512 25.4635 6.4942 25.1314 6.27151C25.542 5.80748 25.7842 5.19119 25.7546 4.51651C25.6942 3.1786 24.5468 2.14582 23.2038 2.14582H19.4802V10.8167H23.7406C25.1169 10.8167 26.2329 9.70507 26.2329 8.33225C26.2329 7.90313 26.1242 7.49989 25.9315 7.1472ZM23.4635 9.34517H21.2659V7.21702H23.4508C24.0245 7.21702 24.51 7.67142 24.51 8.28169C24.51 8.88415 24.0257 9.34517 23.4635 9.34517ZM22.9967 5.74549H21.2659V3.61795H22.9834C23.5577 3.61795 24.0432 4.07174 24.0432 4.68202C24.042 5.28387 23.5577 5.74549 22.9967 5.74549Z" fill="white"/>
<path d="M50 2.40233H47.945L46.3398 4.96682L44.7353 2.40233H42.6797L45.3126 6.60928L42.6797 10.8168H44.7353L46.3398 8.25233L47.945 10.8168H50L47.3677 6.60928L50 2.40233Z" fill="white"/>
<path d="M35.2394 7.36857V10.8166H33.4537V7.05982C33.4537 6.51334 33.0013 6.07218 32.4482 6.08783C31.9156 6.10408 31.5043 6.56811 31.5043 7.10015V10.8154H29.718V4.6157H31.5043V4.91121C31.9065 4.72163 32.3546 4.6157 32.8286 4.6157C33.066 4.6157 33.2973 4.64218 33.5195 4.69274C34.5093 4.91723 35.2086 5.79834 35.2339 6.80945C35.2375 6.99121 35.2394 7.17899 35.2394 7.36857Z" fill="white"/>
<path fill-rule="evenodd" clip-rule="evenodd" d="M27.0825 2.14582H28.8688V3.9261H27.0825V2.14582Z" fill="white"/>
<path d="M42.2013 4.61743H39.1209C39.1106 4.61743 39.101 4.61623 39.0901 4.61623C37.3727 4.61623 35.9801 6.0047 35.9801 7.71696C35.9801 9.42081 37.3588 10.8027 39.0635 10.8153C39.0714 10.8171 39.0804 10.8171 39.0901 10.8171C39.7532 10.8171 40.415 11.0109 40.415 11.5857C40.415 12.1689 39.8154 12.6642 39.0901 12.6642C38.3588 12.6642 37.7658 12.0732 37.7658 11.3443H35.9795C35.9795 13.056 37.3727 14.4445 39.0895 14.4445C40.8082 14.4445 42.1995 13.056 42.1995 11.3443C42.1995 11.3443 42.2339 10.4181 41.4459 9.74039C41.9169 9.19812 42.2001 8.49215 42.2001 7.71696C42.2001 7.11933 42.031 6.56201 41.7369 6.08896H42.2013V4.61743ZM39.0901 9.03683C38.3588 9.03683 37.7658 8.44581 37.7658 7.71696C37.7658 6.98812 38.3588 6.3971 39.0901 6.3971C39.8214 6.3971 40.415 6.98812 40.415 7.71696C40.415 8.44581 39.8214 9.03683 39.0901 9.03683Z" fill="white"/>
<path d="M16.5495 0C14.6388 0 12.7499 0.481481 11.0855 1.39329C10.1942 1.88139 9.37111 2.48685 8.6398 3.19403C8.46769 3.35954 8.29921 3.53287 8.13797 3.70981C7.5987 4.30203 7.12042 4.95203 6.71884 5.64115C6.57632 5.88852 6.4181 6.12986 6.24901 6.36037C6.22667 6.39046 6.20553 6.42055 6.18138 6.45004C4.70246 8.40064 2.44936 9.51888 0 9.51888V13.1228C1.9107 13.1228 3.79965 12.6413 5.46396 11.7301C6.35349 11.2432 7.17658 10.6365 7.9097 9.92935C8.08181 9.76324 8.25029 9.5899 8.41214 9.41356C8.95201 8.82074 9.42848 8.17194 9.83006 7.48222L9.85663 7.43768C9.99251 7.20537 10.1423 6.97907 10.2999 6.76361C10.3222 6.73412 10.3446 6.70342 10.3681 6.67213C11.8464 4.72213 14.1001 3.60329 16.5495 3.60329V0Z" fill="white"/>
<path d="M16.5495 9.52036C14.1001 9.52036 11.8464 8.40152 10.3669 6.45092C10.3452 6.42143 10.3222 6.39194 10.2999 6.36004C10.1314 6.13134 9.97318 5.88939 9.83066 5.64143C9.42908 4.95291 8.95141 4.30351 8.41153 3.71069C8.25029 3.53495 8.08181 3.36162 7.9097 3.19551C7.1784 2.48833 6.3559 1.88226 5.46396 1.39477C3.79965 0.483562 1.9107 0.00208092 0 0.00208092V3.60597C2.44936 3.60597 4.70307 4.72421 6.18259 6.67481C6.20553 6.7043 6.22727 6.73499 6.24962 6.76448C6.40844 6.98055 6.5582 7.20745 6.69227 7.43735L6.72065 7.4843C7.12163 8.17222 7.5987 8.82101 8.13797 9.41444C8.2986 9.59018 8.46769 9.76351 8.6398 9.92962C9.37231 10.6368 10.1954 11.2435 11.0855 11.7304C12.7499 12.6416 14.6388 13.123 16.5495 13.123V9.52036Z" fill="white"/>
</svg>
