<svg width="9" height="16" viewBox="0 0 9 16" fill="none" xmlns="http://www.w3.org/2000/svg">
<path d="M4.875 0.240234C7.1543 0.240234 8.97656 2.06836 8.97656 4.33594C8.97656 5.88867 8.10352 7.23047 6.52734 8.05078L7.62305 9.15234C7.91602 9.44531 7.91016 9.89648 7.62891 10.1836L6.4043 11.4141L7.20703 12.2227C7.49414 12.5156 7.50586 12.9609 7.21289 13.248L5.39062 15.0762C5.13281 15.334 4.74023 15.3047 4.51172 15.1055L3.39258 14.1035C3.19922 13.9277 3.11719 13.6699 3.11719 13.4297V8.05078C1.66992 7.37695 0.767578 5.93555 0.767578 4.33594C0.767578 2.0625 2.58984 0.240234 4.875 0.240234ZM4.875 3.79688C5.41406 3.79688 5.85352 3.35742 5.85352 2.8125C5.85352 2.27344 5.41406 1.83398 4.875 1.83398C4.33008 1.83398 3.89062 2.26758 3.89062 2.8125C3.89062 3.35742 4.33008 3.79688 4.875 3.79688Z" fill="white"/>
</svg>
