<svg width="15" height="15" viewBox="0 0 15 15" fill="none" xmlns="http://www.w3.org/2000/svg">
<path d="M6.76367 10.3828C6.3125 10.2715 5.86719 10.0195 5.60352 9.75586C4.05664 8.20898 4.05078 6.01172 5.59766 4.46484L7.74219 2.32617C9.28906 0.779297 11.4805 0.779297 13.0332 2.33203C14.5859 3.87891 14.5977 6.08789 13.0449 7.62305L11.4863 9.16406C11.7148 8.47852 11.5859 7.6875 11.3281 7.08984L11.8672 6.54492C12.7637 5.64844 12.7578 4.40625 11.8555 3.50391C10.959 2.60742 9.7168 2.60742 8.82031 3.49805L6.76953 5.54297C5.87891 6.43945 5.88477 7.68164 6.78711 8.58398C7.0625 8.86523 7.54297 9.07031 8.01172 9.14062L6.76367 10.3828ZM8.47461 5.0918C8.93164 5.20312 9.37695 5.45508 9.63477 5.71289C11.1875 7.26562 11.1875 9.46289 9.64648 11.0098L7.49609 13.1484C5.95508 14.6953 3.76367 14.6953 2.20508 13.1426C0.658203 11.5898 0.646484 9.38672 2.19922 7.85156L3.75781 6.31055C3.5293 6.99023 3.6582 7.78711 3.91602 8.38477L3.37109 8.92969C2.48047 9.82031 2.48047 11.0625 3.38867 11.9707C4.2793 12.8672 5.52148 12.8672 6.41797 11.9707L8.46875 9.92578C9.36523 9.03516 9.35938 7.79297 8.45703 6.89062C8.17578 6.60938 7.70117 6.39844 7.23242 6.32812L8.47461 5.0918Z" fill="white"/>
</svg>
