<svg width="20" height="20" viewBox="0 0 20 20" fill="none" xmlns="http://www.w3.org/2000/svg">
<g clip-path="url(#clip0_270_2670)">
<rect x="2.10547" y="4.21053" width="2.10526" height="2.10526" fill="#764E41"/>
<rect y="6.31579" width="18.9474" height="7.36842" fill="#764E41"/>
<rect x="17.8945" y="6.31579" width="2.10526" height="7.36842" fill="#764E41"/>
<rect width="2.10526" height="2.10526" transform="matrix(1 0 0 -1 2.10547 15.7895)" fill="#764E41"/>
<rect width="2.10526" height="2.10526" transform="matrix(-1 0 0 1 17.8945 4.21053)" fill="#764E41"/>
<rect x="17.8945" y="15.7895" width="2.10526" height="2.10526" transform="rotate(180 17.8945 15.7895)" fill="#764E41"/>
<rect x="4.21045" y="2.10526" width="2.10526" height="13.6842" fill="#764E41"/>
<rect x="6.31592" width="7.36842" height="17.8947" fill="#764E41"/>
<rect x="6.31592" y="17.8947" width="7.36842" height="2.10526" fill="#764E41"/>
<rect width="2.10526" height="2.10526" transform="matrix(1 0 0 -1 4.21045 17.8947)" fill="#764E41"/>
<rect width="2.10526" height="13.6842" transform="matrix(-1 0 0 1 15.7896 2.10526)" fill="#764E41"/>
<rect x="15.7896" y="17.8947" width="2.10526" height="2.10526" transform="rotate(180 15.7896 17.8947)" fill="#764E41"/>
<path d="M8.80345 9.7574H9.73479C9.9815 9.7574 10.1933 9.72451 10.3701 9.65872C10.551 9.58882 10.697 9.49219 10.808 9.36883C10.9108 9.26192 10.9868 9.1324 11.0362 8.98026C11.0896 8.82401 11.1164 8.65543 11.1164 8.47451C11.1164 8.2977 11.0896 8.13734 11.0362 7.99342C10.9868 7.84539 10.9108 7.71793 10.808 7.61102C10.7052 7.50822 10.5736 7.42804 10.4132 7.37048C10.257 7.31291 10.074 7.28413 9.86431 7.28413C9.69161 7.28413 9.52919 7.3088 9.37706 7.35814C9.22903 7.40748 9.09951 7.47738 8.98849 7.56785C8.87335 7.66242 8.78289 7.77549 8.7171 7.90707C8.65132 8.03865 8.61842 8.18668 8.61842 8.35115H6.90378C6.90378 7.9852 6.9778 7.65214 7.12582 7.35197C7.27796 7.05181 7.48561 6.79276 7.74877 6.57484C8.01192 6.36102 8.32031 6.19449 8.67393 6.07525C9.03166 5.956 9.41612 5.89638 9.8273 5.89638C10.2714 5.89638 10.6785 5.95189 11.0485 6.06291C11.4186 6.16982 11.7352 6.33018 11.9984 6.544C12.2615 6.76192 12.465 7.03125 12.609 7.35197C12.757 7.66859 12.831 8.0366 12.831 8.456C12.831 8.64926 12.8022 8.84046 12.7447 9.02961C12.6871 9.21464 12.6028 9.39145 12.4918 9.56003C12.3808 9.72862 12.243 9.88487 12.0785 10.0288C11.9141 10.1686 11.7249 10.2899 11.5111 10.3927C11.7619 10.4831 11.9778 10.5983 12.1587 10.7381C12.3437 10.8779 12.4959 11.0362 12.6151 11.213C12.7344 11.3939 12.8228 11.5913 12.8803 11.8051C12.9379 12.0189 12.9667 12.2451 12.9667 12.4836C12.9667 12.903 12.8865 13.2771 12.7262 13.6061C12.5658 13.935 12.3458 14.2105 12.0662 14.4326C11.7866 14.6587 11.4535 14.8314 11.067 14.9507C10.6846 15.0658 10.2714 15.1234 9.8273 15.1234C9.4449 15.1234 9.07072 15.072 8.70477 14.9692C8.34293 14.8623 8.02015 14.7019 7.73643 14.4881C7.45271 14.2784 7.22451 14.0132 7.05181 13.6924C6.88322 13.3717 6.79893 12.9934 6.79893 12.5576H8.51357C8.51357 12.7303 8.54646 12.8906 8.61225 13.0387C8.67804 13.1826 8.77261 13.3059 8.89597 13.4087C9.01521 13.5156 9.15707 13.5999 9.32155 13.6616C9.48602 13.7192 9.66694 13.7479 9.86431 13.7479C10.0863 13.7479 10.2858 13.7171 10.4626 13.6554C10.6394 13.5937 10.7874 13.5033 10.9067 13.384C11.0218 13.2771 11.1081 13.1456 11.1657 12.9893C11.2274 12.8331 11.2582 12.6583 11.2582 12.465C11.2582 12.2225 11.2233 12.0148 11.1534 11.8421C11.0835 11.6694 10.9827 11.5275 10.8512 11.4165C10.7155 11.3055 10.553 11.2233 10.3639 11.1698C10.1789 11.1164 9.96916 11.0896 9.73479 11.0896H8.80345V9.7574Z" fill="white"/>
</g>
<defs>
<clipPath id="clip0_270_2670">
<rect width="20" height="20" fill="white"/>
</clipPath>
</defs>
</svg>
