<svg width="26" height="26" viewBox="0 0 26 26" fill="none" xmlns="http://www.w3.org/2000/svg">
<g clip-path="url(#clip0_23_91)">
<path d="M25.9479 2.73646C25.9274 2.64052 25.8818 2.55177 25.8155 2.47948C25.7492 2.40718 25.6647 2.35396 25.5709 2.32533C25.2293 2.25721 24.8756 2.28248 24.5472 2.39846C24.5472 2.39846 1.7663 10.5852 0.464671 11.492C0.185171 11.6886 0.0909213 11.8007 0.0437963 11.934C-0.180454 12.584 0.519921 12.8651 0.519921 12.8651L6.39105 14.7777C6.49017 14.7956 6.59214 14.7895 6.68842 14.7598C8.02417 13.9165 20.1272 6.27408 20.8259 6.01733C20.9364 5.98483 21.0177 6.01733 20.9884 6.09696C20.7089 7.07196 10.2537 16.3654 10.1968 16.4223C10.1691 16.4453 10.1473 16.4749 10.1335 16.5084C10.1196 16.5417 10.114 16.5779 10.1172 16.614L9.56955 22.347C9.56955 22.347 9.3388 24.1345 11.123 22.347C12.3889 21.0811 13.6044 20.0314 14.2105 19.5228C16.2288 20.917 18.4014 22.4575 19.339 23.2603C19.496 23.4132 19.6824 23.5328 19.8868 23.6117C20.0913 23.6907 20.3095 23.7276 20.5285 23.7201C20.7983 23.6868 21.0515 23.5723 21.2546 23.3917C21.4577 23.2112 21.6012 22.9733 21.666 22.7094C21.666 22.7094 25.8277 6.01246 25.9658 3.76508C25.9788 3.54571 25.9999 3.41246 25.9999 3.24996C26.0059 3.07723 25.9884 2.9045 25.9479 2.73646Z" fill="white"/>
</g>
<defs>
<clipPath id="clip0_23_91">
<rect width="26" height="26" fill="white"/>
</clipPath>
</defs>
</svg>
