<svg width="26" height="26" viewBox="0 0 26 26" fill="none" xmlns="http://www.w3.org/2000/svg">
<g clip-path="url(#clip0_23_103)">
<path d="M10.647 10.907C10.2848 10.9368 9.94704 11.1018 9.7008 11.3691C9.45457 11.6364 9.31787 11.9866 9.31787 12.35C9.31787 12.7135 9.45457 13.0636 9.7008 13.331C9.94704 13.5983 10.2848 13.7632 10.647 13.793C10.8289 13.7855 11.0075 13.7422 11.1726 13.6656C11.3377 13.589 11.4861 13.4805 11.6093 13.3465C11.7324 13.2125 11.828 13.0555 11.8904 12.8845C11.9528 12.7135 11.9809 12.5319 11.973 12.35C11.982 12.1679 11.9546 11.9859 11.8926 11.8144C11.8306 11.6429 11.7352 11.4855 11.6118 11.3513C11.4884 11.217 11.3396 11.1086 11.174 11.0323C11.0084 10.9561 10.8293 10.9135 10.647 10.907ZM15.392 10.907C15.1015 10.8825 14.8104 10.9462 14.5567 11.0899C14.303 11.2336 14.0986 11.4505 13.9702 11.7122C13.8418 11.974 13.7955 12.2684 13.8372 12.557C13.8789 12.8455 14.0068 13.1148 14.2041 13.3294C14.4013 13.5441 14.6588 13.6942 14.9428 13.7602C15.2268 13.8261 15.5241 13.8047 15.7958 13.6989C16.0674 13.5931 16.3007 13.4077 16.4654 13.167C16.63 12.9263 16.718 12.6416 16.718 12.35C16.7258 12.1682 16.6977 11.9866 16.6353 11.8156C16.5729 11.6446 16.4774 11.4876 16.3542 11.3536C16.2311 11.2195 16.0827 11.1111 15.9176 11.0345C15.7525 10.9579 15.5739 10.9146 15.392 10.907Z" fill="white"/>
<path d="M21.71 0L4.29001 0C3.93919 0.000852555 3.59197 0.0707975 3.26818 0.20584C2.94438 0.340884 2.65035 0.538382 2.40288 0.787057C2.15541 1.03573 1.95935 1.33072 1.82587 1.65516C1.69241 1.97961 1.62416 2.32718 1.62501 2.678L1.62501 20.254C1.62416 20.6048 1.69241 20.9524 1.82587 21.2768C1.95935 21.6013 2.15541 21.8962 2.40288 22.145C2.65035 22.3936 2.94438 22.5911 3.26818 22.7261C3.59197 22.8612 3.93919 22.9312 4.29001 22.932L19.032 22.932L18.343 20.527L20.007 22.074L21.58 23.5365L24.375 26L24.375 2.678C24.3758 2.32718 24.3076 1.97961 24.1742 1.65516C24.0407 1.33072 23.8446 1.03573 23.5971 0.787057C23.3496 0.538382 23.0557 0.340884 22.7318 0.20584C22.4081 0.0707975 22.0608 0.000852555 21.71 0ZM16.692 16.978C16.692 16.978 16.224 16.4125 15.834 15.925C16.7763 15.7032 17.6098 15.1552 18.187 14.378C17.7192 14.6893 17.2177 14.9466 16.692 15.145C16.0872 15.4031 15.4547 15.5907 14.807 15.704C13.6936 15.9091 12.5518 15.9047 11.44 15.691C10.7873 15.5633 10.1476 15.3762 9.52901 15.132C9.00839 14.9314 8.5114 14.6742 8.04701 14.365C8.60334 15.1259 9.40804 15.6685 10.322 15.899C9.93202 16.3865 9.45101 16.978 9.45101 16.978C8.67877 16.9988 7.91325 16.8295 7.22185 16.485C6.53043 16.1404 5.93433 15.6311 5.48601 15.002C5.52821 12.3665 6.1683 9.77504 7.35801 7.423C8.40498 6.60073 9.68138 6.12378 11.011 6.058L11.141 6.2205C9.89242 6.53112 8.72741 7.11251 7.72851 7.9235C7.72851 7.9235 8.01451 7.761 8.49551 7.5465C9.43034 7.1222 10.4263 6.84799 11.4465 6.734C11.5193 6.71894 11.5932 6.71024 11.6675 6.708C12.5357 6.58853 13.4151 6.57325 14.287 6.6625C15.6603 6.81933 16.9895 7.24329 18.2 7.9105C17.2495 7.13955 16.1462 6.57904 14.963 6.266L15.145 6.058C16.4746 6.12378 17.751 6.60073 18.798 7.423C19.9877 9.77504 20.6278 12.3665 20.67 15.002C20.2181 15.6305 19.6194 16.1391 18.9261 16.4835C18.2328 16.8278 17.4658 16.9977 16.692 16.978Z" fill="white"/>
</g>
<defs>
<clipPath id="clip0_23_103">
<rect width="26" height="26" fill="white"/>
</clipPath>
</defs>
</svg>
