<svg width="39" height="38" viewBox="0 0 39 38" fill="none" xmlns="http://www.w3.org/2000/svg">
<g clip-path="url(#clip0_36_631)">
<rect x="4.75" y="8" width="4" height="4" fill="#FF5722"/>
<rect x="0.75" y="12" width="4" height="14" fill="#FF5722"/>
<rect x="34.75" y="12" width="4" height="14" fill="#FF5722"/>
<rect width="4" height="4" transform="matrix(1 0 0 -1 4.75 30)" fill="#FF5722"/>
<rect width="4" height="4" transform="matrix(-1 0 0 1 34.75 8)" fill="#FF5722"/>
<rect x="34.75" y="30" width="4" height="4" transform="rotate(180 34.75 30)" fill="#FF5722"/>
<rect x="8.75" y="4" width="4" height="4" fill="#FF5722"/>
<rect x="12.75" width="14" height="4" fill="#FF5722"/>
<rect x="12.75" y="34" width="14" height="4" fill="#FF5722"/>
<rect width="4" height="4" transform="matrix(1 0 0 -1 8.75 34)" fill="#FF5722"/>
<rect width="4" height="4" transform="matrix(-1 0 0 1 30.75 4)" fill="#FF5722"/>
<rect x="30.75" y="34" width="4" height="4" transform="rotate(180 30.75 34)" fill="#FF5722"/>
<path d="M27.8774 10.6887C30.315 13.1263 30.315 17.0624 27.8843 19.493C25.9923 21.3851 23.2301 21.7718 20.247 20.4874L20.2332 24.1887C20.2263 24.4856 20.0261 24.6859 19.7567 24.6928L16.0348 24.6859L16.0555 27.3858C16.0486 27.669 15.8552 27.8761 15.5583 27.883H11.1803C10.8903 27.883 10.69 27.6137 10.69 27.3789L10.6969 25.0657C10.7038 24.8102 10.7798 24.6237 10.9524 24.4511L17.768 17.6355C16.6977 15.2532 17.2225 12.5186 19.0662 10.6749C21.5107 8.23043 25.4191 8.23043 27.8774 10.6887ZM23.8309 14.7353C24.4662 15.3706 25.502 15.3706 26.1373 14.7353C26.7795 14.0931 26.7726 13.0642 26.1373 12.4289C25.4882 11.7798 24.4731 11.7867 23.8309 12.4289C23.1956 13.0642 23.1887 14.0931 23.8309 14.7353Z" fill="white"/>
</g>
<defs>
<clipPath id="clip0_36_631">
<rect width="38" height="38" fill="white" transform="translate(0.75)"/>
</clipPath>
</defs>
</svg>
