<svg width="38" height="38" viewBox="0 0 38 38" fill="none" xmlns="http://www.w3.org/2000/svg">
<g clip-path="url(#clip0_36_660)">
<rect x="4" y="8" width="4" height="4" fill="#FF5722"/>
<rect y="12" width="4" height="14" fill="#FF5722"/>
<rect x="34" y="12" width="4" height="14" fill="#FF5722"/>
<rect width="4" height="4" transform="matrix(1 0 0 -1 4 30)" fill="#FF5722"/>
<rect width="4" height="4" transform="matrix(-1 0 0 1 34 8)" fill="#FF5722"/>
<rect x="34" y="30" width="4" height="4" transform="rotate(180 34 30)" fill="#FF5722"/>
<rect x="8" y="4" width="4" height="4" fill="#FF5722"/>
<rect x="12" width="14" height="4" fill="#FF5722"/>
<rect x="12" y="34" width="14" height="4" fill="#FF5722"/>
<rect width="4" height="4" transform="matrix(1 0 0 -1 8 34)" fill="#FF5722"/>
<rect width="4" height="4" transform="matrix(-1 0 0 1 30 4)" fill="#FF5722"/>
<rect x="30" y="34" width="4" height="4" transform="rotate(180 30 34)" fill="#FF5722"/>
<path d="M17.4793 10.2536L23.114 10.3309C23.4289 10.3364 23.777 10.4746 23.9979 10.6955C24.4951 11.1927 24.4951 11.9109 23.9979 12.408C23.7659 12.6401 23.4731 12.7782 23.1472 12.7616L20.8878 12.7119L20.3188 12.6732L21.2137 13.535L27.7765 20.0978C28.2682 20.5895 28.2737 21.3353 27.7821 21.8269C27.2849 22.3241 26.5391 22.3186 26.0474 21.8269L19.4846 15.2641L18.6228 14.3692L18.667 14.9326L18.7167 17.1921C18.7278 17.5235 18.5952 17.8108 18.3632 18.0428C17.866 18.54 17.1478 18.54 16.6506 18.0428C16.4297 17.8218 16.286 17.4793 16.286 17.1589L16.2032 11.5297C16.1921 10.8115 16.7556 10.237 17.4793 10.2536ZM20.3851 28.6605L14.7613 28.5831C14.4465 28.5776 14.0984 28.4395 13.8775 28.2185C13.3748 27.7158 13.3803 27.0032 13.8775 26.506C14.1095 26.274 14.4023 26.1359 14.7227 26.1469L16.9821 26.1966L17.5511 26.2463L16.6562 25.3846L10.0933 18.8217C9.59615 18.3245 9.59615 17.5843 10.0933 17.0871C10.5905 16.5899 11.3308 16.5899 11.828 17.0871L18.3908 23.6499L19.2526 24.5449L19.2029 23.9759L19.1531 21.7164C19.1476 21.3905 19.2802 21.1033 19.5122 20.8712C20.0094 20.374 20.722 20.3685 21.2247 20.8712C21.4457 21.0922 21.5893 21.4347 21.5893 21.7551L21.6667 27.3788C21.6777 28.108 21.1143 28.6715 20.3851 28.6605Z" fill="white"/>
</g>
<defs>
<clipPath id="clip0_36_660">
<rect width="38" height="38" fill="white"/>
</clipPath>
</defs>
</svg>
