<svg width="12" height="12" viewBox="0 0 12 12" fill="none" xmlns="http://www.w3.org/2000/svg">
<path d="M4.94727 11.1602C4.51367 11.1602 4.17383 11.0137 3.88672 10.6797L0.869141 7.12305C0.611328 6.83008 0.523438 6.57812 0.523438 6.27344C0.523438 5.59961 1.02734 5.10156 1.71875 5.10156C2.11133 5.10156 2.39844 5.23633 2.64453 5.5293L4.92383 8.25391L9.46484 1.12891C9.75195 0.683594 10.0508 0.513672 10.5137 0.513672C11.1992 0.513672 11.7207 1.01172 11.7207 1.67383C11.7207 1.91992 11.6445 2.18359 11.4629 2.45312L6.04883 10.6094C5.79688 10.9844 5.42773 11.1602 4.94727 11.1602Z" fill="white"/>
</svg>
