<svg width="39" height="38" viewBox="0 0 39 38" fill="none" xmlns="http://www.w3.org/2000/svg">
<g clip-path="url(#clip0_270_2885)">
<rect x="4.5" y="8" width="4" height="4" fill="#FF5722"/>
<rect x="0.5" y="12" width="4" height="14" fill="#FF5722"/>
<rect x="34.5" y="12" width="4" height="14" fill="#FF5722"/>
<rect width="4" height="4" transform="matrix(1 0 0 -1 4.5 30)" fill="#FF5722"/>
<rect width="4" height="4" transform="matrix(-1 0 0 1 34.5 8)" fill="#FF5722"/>
<rect x="34.5" y="30" width="4" height="4" transform="rotate(180 34.5 30)" fill="#FF5722"/>
<rect x="8.5" y="4" width="4" height="4" fill="#FF5722"/>
<rect x="12.5" width="14" height="4" fill="#FF5722"/>
<rect x="12.5" y="34" width="14" height="4" fill="#FF5722"/>
<rect width="4" height="4" transform="matrix(1 0 0 -1 8.5 34)" fill="#FF5722"/>
<rect width="4" height="4" transform="matrix(-1 0 0 1 30.5 4)" fill="#FF5722"/>
<rect x="30.5" y="34" width="4" height="4" transform="rotate(180 30.5 34)" fill="#FF5722"/>
<rect x="12.8889" y="11.8889" width="14.2222" height="14.2222" rx="4.44444" stroke="white" stroke-width="1.77778"/>
<circle cx="20" cy="19" r="2.66667" stroke="white" stroke-width="1.77778"/>
<circle cx="23.5555" cy="15.4444" r="0.444444" fill="#D9D9D9" stroke="white" stroke-width="0.888889"/>
</g>
<defs>
<clipPath id="clip0_270_2885">
<rect width="38" height="38" fill="white" transform="translate(0.5)"/>
</clipPath>
</defs>
</svg>
