<svg width="39" height="38" viewBox="0 0 39 38" fill="none" xmlns="http://www.w3.org/2000/svg">
<g clip-path="url(#clip0_270_2920)">
<rect x="4.5" y="8" width="4" height="4" fill="#FF5722"/>
<rect x="0.5" y="12" width="4" height="14" fill="#FF5722"/>
<rect x="34.5" y="12" width="4" height="14" fill="#FF5722"/>
<rect width="4" height="4" transform="matrix(1 0 0 -1 4.5 30)" fill="#FF5722"/>
<rect width="4" height="4" transform="matrix(-1 0 0 1 34.5 8)" fill="#FF5722"/>
<rect x="34.5" y="30" width="4" height="4" transform="rotate(180 34.5 30)" fill="#FF5722"/>
<rect x="8.5" y="4" width="4" height="4" fill="#FF5722"/>
<rect x="12.5" width="14" height="4" fill="#FF5722"/>
<rect x="12.5" y="34" width="14" height="4" fill="#FF5722"/>
<rect width="4" height="4" transform="matrix(1 0 0 -1 8.5 34)" fill="#FF5722"/>
<rect width="4" height="4" transform="matrix(-1 0 0 1 30.5 4)" fill="#FF5722"/>
<rect x="30.5" y="34" width="4" height="4" transform="rotate(180 30.5 34)" fill="#FF5722"/>
<g clip-path="url(#clip1_270_2920)">
<path d="M27.968 12.684C27.9554 12.6249 27.9273 12.5703 27.8865 12.5258C27.8457 12.4813 27.7937 12.4486 27.736 12.431C27.5258 12.3891 27.3081 12.4046 27.106 12.476C27.106 12.476 13.087 17.514 12.286 18.072C12.114 18.193 12.056 18.262 12.027 18.344C11.889 18.744 12.32 18.917 12.32 18.917L15.933 20.094C15.994 20.105 16.0568 20.1012 16.116 20.083C16.938 19.564 24.386 14.861 24.816 14.703C24.884 14.683 24.934 14.703 24.916 14.752C24.744 15.352 18.31 21.071 18.275 21.106C18.2579 21.1202 18.2446 21.1384 18.236 21.159C18.2275 21.1795 18.2241 21.2018 18.226 21.224L17.889 24.752C17.889 24.752 17.747 25.852 18.845 24.752C19.624 23.973 20.372 23.327 20.745 23.014C21.987 23.872 23.324 24.82 23.901 25.314C23.9976 25.4081 24.1123 25.4817 24.2381 25.5303C24.3639 25.5789 24.4982 25.6016 24.633 25.597C24.799 25.5765 24.9548 25.506 25.0798 25.3949C25.2048 25.2838 25.2931 25.1374 25.333 24.975C25.333 24.975 27.894 14.7 27.979 13.317C27.987 13.182 28 13.1 28 13C28.0037 12.8937 27.9929 12.7874 27.968 12.684Z" fill="white"/>
</g>
</g>
<defs>
<clipPath id="clip0_270_2920">
<rect width="38" height="38" fill="white" transform="translate(0.5)"/>
</clipPath>
<clipPath id="clip1_270_2920">
<rect width="16" height="16" fill="white" transform="translate(12 11)"/>
</clipPath>
</defs>
</svg>
