<svg width="39" height="38" viewBox="0 0 39 38" fill="none" xmlns="http://www.w3.org/2000/svg">
<g clip-path="url(#clip0_270_2904)">
<rect x="4.5" y="8" width="4" height="4" fill="#FF5722"/>
<rect x="0.5" y="12" width="4" height="14" fill="#FF5722"/>
<rect x="34.5" y="12" width="4" height="14" fill="#FF5722"/>
<rect width="4" height="4" transform="matrix(1 0 0 -1 4.5 30)" fill="#FF5722"/>
<rect width="4" height="4" transform="matrix(-1 0 0 1 34.5 8)" fill="#FF5722"/>
<rect x="34.5" y="30" width="4" height="4" transform="rotate(180 34.5 30)" fill="#FF5722"/>
<rect x="8.5" y="4" width="4" height="4" fill="#FF5722"/>
<rect x="12.5" width="14" height="4" fill="#FF5722"/>
<rect x="12.5" y="34" width="14" height="4" fill="#FF5722"/>
<rect width="4" height="4" transform="matrix(1 0 0 -1 8.5 34)" fill="#FF5722"/>
<rect width="4" height="4" transform="matrix(-1 0 0 1 30.5 4)" fill="#FF5722"/>
<rect x="30.5" y="34" width="4" height="4" transform="rotate(180 30.5 34)" fill="#FF5722"/>
<g clip-path="url(#clip1_270_2904)">
<path d="M24.6009 11.7429H27.0544L21.6943 17.869L28 26.2054H23.0627L19.1957 21.1494L14.7709 26.2054H12.316L18.049 19.6527L12 11.7429H17.0626L20.5581 16.3642L24.6009 11.7429ZM23.7399 24.7369H25.0993L16.3239 13.1342H14.8651L23.7399 24.7369Z" fill="white"/>
</g>
</g>
<defs>
<clipPath id="clip0_270_2904">
<rect width="38" height="38" fill="white" transform="translate(0.5)"/>
</clipPath>
<clipPath id="clip1_270_2904">
<rect width="16" height="16" fill="white" transform="translate(12 11)"/>
</clipPath>
</defs>
</svg>
